<?xml version="1.0" encoding="utf-8" standalone="no"?>
<!DOCTYPE svg PUBLIC "-//W3C//DTD SVG 1.1//EN"
  "http://www.w3.org/Graphics/SVG/1.1/DTD/svg11.dtd">
<!-- Created with matplotlib (https://matplotlib.org/) -->
<svg height="325.419375pt" version="1.1" viewBox="0 0 1059.11925 325.419375" width="1059.11925pt" xmlns="http://www.w3.org/2000/svg" xmlns:xlink="http://www.w3.org/1999/xlink">
 <defs>
  <style type="text/css">
*{stroke-linecap:butt;stroke-linejoin:round;}
  </style>
 </defs>
 <g id="figure_1">
  <g id="patch_1">
   <path d="M 0 325.419375 
L 1059.11925 325.419375 
L 1059.11925 0 
L 0 0 
z
" style="fill:#ffffff;"/>
  </g>
  <g id="axes_1">
   <g id="patch_2">
    <path d="M 47.51925 291.8715 
L 342.931015 291.8715 
L 342.931015 20.0715 
L 47.51925 20.0715 
z
" style="fill:#ffffff;"/>
   </g>
   <g id="matplotlib.axis_1">
    <g id="xtick_1">
     <g id="line2d_1">
      <defs>
       <path d="M 0 0 
L 0 4.8 
" id="mbaadda8d71" style="stroke:#262626;"/>
      </defs>
      <g>
       <use style="fill:#262626;stroke:#262626;" x="60.947057" xlink:href="#mbaadda8d71" y="301.8715"/>
      </g>
     </g>
     <g id="text_1">
      <!-- 0 -->
      <defs>
       <path d="M 4.15625 35.296875 
Q 4.15625 48 6.765625 55.734375 
Q 9.375 63.484375 14.515625 67.671875 
Q 19.671875 71.875 27.484375 71.875 
Q 33.25 71.875 37.59375 69.546875 
Q 41.9375 67.234375 44.765625 62.859375 
Q 47.609375 58.5 49.21875 52.21875 
Q 50.828125 45.953125 50.828125 35.296875 
Q 50.828125 22.703125 48.234375 14.96875 
Q 45.65625 7.234375 40.5 3 
Q 35.359375 -1.21875 27.484375 -1.21875 
Q 17.140625 -1.21875 11.234375 6.203125 
Q 4.15625 15.140625 4.15625 35.296875 
z
M 13.1875 35.296875 
Q 13.1875 17.671875 17.3125 11.828125 
Q 21.4375 6 27.484375 6 
Q 33.546875 6 37.671875 11.859375 
Q 41.796875 17.71875 41.796875 35.296875 
Q 41.796875 52.984375 37.671875 58.78125 
Q 33.546875 64.59375 27.390625 64.59375 
Q 21.34375 64.59375 17.71875 59.46875 
Q 13.1875 52.9375 13.1875 35.296875 
z
" id="ArialMT-48"/>
      </defs>
      <g style="fill:#262626;" transform="translate(58.500245 316.470375)scale(0.088 -0.088)">
       <use xlink:href="#ArialMT-48"/>
      </g>
     </g>
    </g>
    <g id="xtick_2">
     <g id="line2d_2">
      <g>
       <use style="fill:#262626;stroke:#262626;" x="120.626202" xlink:href="#mbaadda8d71" y="301.8715"/>
      </g>
     </g>
     <g id="text_2">
      <!-- 10 -->
      <defs>
       <path d="M 37.25 0 
L 28.46875 0 
L 28.46875 56 
Q 25.296875 52.984375 20.140625 49.953125 
Q 14.984375 46.921875 10.890625 45.40625 
L 10.890625 53.90625 
Q 18.265625 57.375 23.78125 62.296875 
Q 29.296875 67.234375 31.59375 71.875 
L 37.25 71.875 
z
" id="ArialMT-49"/>
      </defs>
      <g style="fill:#262626;" transform="translate(115.732577 316.470375)scale(0.088 -0.088)">
       <use xlink:href="#ArialMT-49"/>
       <use x="55.615234" xlink:href="#ArialMT-48"/>
      </g>
     </g>
    </g>
    <g id="xtick_3">
     <g id="line2d_3">
      <g>
       <use style="fill:#262626;stroke:#262626;" x="180.305346" xlink:href="#mbaadda8d71" y="301.8715"/>
      </g>
     </g>
     <g id="text_3">
      <!-- 20 -->
      <defs>
       <path d="M 50.34375 8.453125 
L 50.34375 0 
L 3.03125 0 
Q 2.9375 3.171875 4.046875 6.109375 
Q 5.859375 10.9375 9.828125 15.625 
Q 13.8125 20.3125 21.34375 26.46875 
Q 33.015625 36.03125 37.109375 41.625 
Q 41.21875 47.21875 41.21875 52.203125 
Q 41.21875 57.421875 37.46875 61 
Q 33.734375 64.59375 27.734375 64.59375 
Q 21.390625 64.59375 17.578125 60.78125 
Q 13.765625 56.984375 13.71875 50.25 
L 4.6875 51.171875 
Q 5.609375 61.28125 11.65625 66.578125 
Q 17.71875 71.875 27.9375 71.875 
Q 38.234375 71.875 44.234375 66.15625 
Q 50.25 60.453125 50.25 52 
Q 50.25 47.703125 48.484375 43.546875 
Q 46.734375 39.40625 42.65625 34.8125 
Q 38.578125 30.21875 29.109375 22.21875 
Q 21.1875 15.578125 18.9375 13.203125 
Q 16.703125 10.84375 15.234375 8.453125 
z
" id="ArialMT-50"/>
      </defs>
      <g style="fill:#262626;" transform="translate(175.411721 316.470375)scale(0.088 -0.088)">
       <use xlink:href="#ArialMT-50"/>
       <use x="55.615234" xlink:href="#ArialMT-48"/>
      </g>
     </g>
    </g>
    <g id="xtick_4">
     <g id="line2d_4">
      <g>
       <use style="fill:#262626;stroke:#262626;" x="239.984491" xlink:href="#mbaadda8d71" y="301.8715"/>
      </g>
     </g>
     <g id="text_4">
      <!-- 30 -->
      <defs>
       <path d="M 4.203125 18.890625 
L 12.984375 20.0625 
Q 14.5 12.59375 18.140625 9.296875 
Q 21.78125 6 27 6 
Q 33.203125 6 37.46875 10.296875 
Q 41.75 14.59375 41.75 20.953125 
Q 41.75 27 37.796875 30.921875 
Q 33.84375 34.859375 27.734375 34.859375 
Q 25.25 34.859375 21.53125 33.890625 
L 22.515625 41.609375 
Q 23.390625 41.5 23.921875 41.5 
Q 29.546875 41.5 34.03125 44.421875 
Q 38.53125 47.359375 38.53125 53.46875 
Q 38.53125 58.296875 35.25 61.46875 
Q 31.984375 64.65625 26.8125 64.65625 
Q 21.6875 64.65625 18.265625 61.421875 
Q 14.84375 58.203125 13.875 51.765625 
L 5.078125 53.328125 
Q 6.6875 62.15625 12.390625 67.015625 
Q 18.109375 71.875 26.609375 71.875 
Q 32.46875 71.875 37.390625 69.359375 
Q 42.328125 66.84375 44.9375 62.5 
Q 47.5625 58.15625 47.5625 53.265625 
Q 47.5625 48.640625 45.0625 44.828125 
Q 42.578125 41.015625 37.703125 38.765625 
Q 44.046875 37.3125 47.5625 32.6875 
Q 51.078125 28.078125 51.078125 21.140625 
Q 51.078125 11.765625 44.234375 5.25 
Q 37.40625 -1.265625 26.953125 -1.265625 
Q 17.53125 -1.265625 11.296875 4.34375 
Q 5.078125 9.96875 4.203125 18.890625 
z
" id="ArialMT-51"/>
      </defs>
      <g style="fill:#262626;" transform="translate(235.090866 316.470375)scale(0.088 -0.088)">
       <use xlink:href="#ArialMT-51"/>
       <use x="55.615234" xlink:href="#ArialMT-48"/>
      </g>
     </g>
    </g>
    <g id="xtick_5">
     <g id="line2d_5">
      <g>
       <use style="fill:#262626;stroke:#262626;" x="299.663635" xlink:href="#mbaadda8d71" y="301.8715"/>
      </g>
     </g>
     <g id="text_5">
      <!-- 40 -->
      <defs>
       <path d="M 32.328125 0 
L 32.328125 17.140625 
L 1.265625 17.140625 
L 1.265625 25.203125 
L 33.9375 71.578125 
L 41.109375 71.578125 
L 41.109375 25.203125 
L 50.78125 25.203125 
L 50.78125 17.140625 
L 41.109375 17.140625 
L 41.109375 0 
z
M 32.328125 25.203125 
L 32.328125 57.46875 
L 9.90625 25.203125 
z
" id="ArialMT-52"/>
      </defs>
      <g style="fill:#262626;" transform="translate(294.77001 316.470375)scale(0.088 -0.088)">
       <use xlink:href="#ArialMT-52"/>
       <use x="55.615234" xlink:href="#ArialMT-48"/>
      </g>
     </g>
    </g>
   </g>
   <g id="matplotlib.axis_2">
    <g id="ytick_1">
     <g id="line2d_6">
      <defs>
       <path d="M 0 0 
L -4.8 0 
" id="m2812ab221a" style="stroke:#262626;"/>
      </defs>
      <g>
       <use style="fill:#262626;stroke:#262626;" x="37.51925" xlink:href="#m2812ab221a" y="291.8715"/>
      </g>
     </g>
     <g id="text_6">
      <!-- 0.000 -->
      <defs>
       <path d="M 9.078125 0 
L 9.078125 10.015625 
L 19.09375 10.015625 
L 19.09375 0 
z
" id="ArialMT-46"/>
      </defs>
      <g style="fill:#262626;" transform="translate(7.2 295.020938)scale(0.088 -0.088)">
       <use xlink:href="#ArialMT-48"/>
       <use x="55.615234" xlink:href="#ArialMT-46"/>
       <use x="83.398438" xlink:href="#ArialMT-48"/>
       <use x="139.013672" xlink:href="#ArialMT-48"/>
       <use x="194.628906" xlink:href="#ArialMT-48"/>
      </g>
     </g>
    </g>
    <g id="ytick_2">
     <g id="line2d_7">
      <g>
       <use style="fill:#262626;stroke:#262626;" x="37.51925" xlink:href="#m2812ab221a" y="258.255232"/>
      </g>
     </g>
     <g id="text_7">
      <!-- 0.005 -->
      <defs>
       <path d="M 4.15625 18.75 
L 13.375 19.53125 
Q 14.40625 12.796875 18.140625 9.390625 
Q 21.875 6 27.15625 6 
Q 33.5 6 37.890625 10.78125 
Q 42.28125 15.578125 42.28125 23.484375 
Q 42.28125 31 38.0625 35.34375 
Q 33.84375 39.703125 27 39.703125 
Q 22.75 39.703125 19.328125 37.765625 
Q 15.921875 35.84375 13.96875 32.765625 
L 5.71875 33.84375 
L 12.640625 70.609375 
L 48.25 70.609375 
L 48.25 62.203125 
L 19.671875 62.203125 
L 15.828125 42.96875 
Q 22.265625 47.46875 29.34375 47.46875 
Q 38.71875 47.46875 45.15625 40.96875 
Q 51.609375 34.46875 51.609375 24.265625 
Q 51.609375 14.546875 45.953125 7.46875 
Q 39.0625 -1.21875 27.15625 -1.21875 
Q 17.390625 -1.21875 11.203125 4.25 
Q 5.03125 9.71875 4.15625 18.75 
z
" id="ArialMT-53"/>
      </defs>
      <g style="fill:#262626;" transform="translate(7.2 261.40467)scale(0.088 -0.088)">
       <use xlink:href="#ArialMT-48"/>
       <use x="55.615234" xlink:href="#ArialMT-46"/>
       <use x="83.398438" xlink:href="#ArialMT-48"/>
       <use x="139.013672" xlink:href="#ArialMT-48"/>
       <use x="194.628906" xlink:href="#ArialMT-53"/>
      </g>
     </g>
    </g>
    <g id="ytick_3">
     <g id="line2d_8">
      <g>
       <use style="fill:#262626;stroke:#262626;" x="37.51925" xlink:href="#m2812ab221a" y="224.638965"/>
      </g>
     </g>
     <g id="text_8">
      <!-- 0.010 -->
      <g style="fill:#262626;" transform="translate(7.2 227.788402)scale(0.088 -0.088)">
       <use xlink:href="#ArialMT-48"/>
       <use x="55.615234" xlink:href="#ArialMT-46"/>
       <use x="83.398438" xlink:href="#ArialMT-48"/>
       <use x="139.013672" xlink:href="#ArialMT-49"/>
       <use x="194.628906" xlink:href="#ArialMT-48"/>
      </g>
     </g>
    </g>
    <g id="ytick_4">
     <g id="line2d_9">
      <g>
       <use style="fill:#262626;stroke:#262626;" x="37.51925" xlink:href="#m2812ab221a" y="191.022697"/>
      </g>
     </g>
     <g id="text_9">
      <!-- 0.015 -->
      <g style="fill:#262626;" transform="translate(7.2 194.172134)scale(0.088 -0.088)">
       <use xlink:href="#ArialMT-48"/>
       <use x="55.615234" xlink:href="#ArialMT-46"/>
       <use x="83.398438" xlink:href="#ArialMT-48"/>
       <use x="139.013672" xlink:href="#ArialMT-49"/>
       <use x="194.628906" xlink:href="#ArialMT-53"/>
      </g>
     </g>
    </g>
    <g id="ytick_5">
     <g id="line2d_10">
      <g>
       <use style="fill:#262626;stroke:#262626;" x="37.51925" xlink:href="#m2812ab221a" y="157.406429"/>
      </g>
     </g>
     <g id="text_10">
      <!-- 0.020 -->
      <g style="fill:#262626;" transform="translate(7.2 160.555867)scale(0.088 -0.088)">
       <use xlink:href="#ArialMT-48"/>
       <use x="55.615234" xlink:href="#ArialMT-46"/>
       <use x="83.398438" xlink:href="#ArialMT-48"/>
       <use x="139.013672" xlink:href="#ArialMT-50"/>
       <use x="194.628906" xlink:href="#ArialMT-48"/>
      </g>
     </g>
    </g>
    <g id="ytick_6">
     <g id="line2d_11">
      <g>
       <use style="fill:#262626;stroke:#262626;" x="37.51925" xlink:href="#m2812ab221a" y="123.790161"/>
      </g>
     </g>
     <g id="text_11">
      <!-- 0.025 -->
      <g style="fill:#262626;" transform="translate(7.2 126.939599)scale(0.088 -0.088)">
       <use xlink:href="#ArialMT-48"/>
       <use x="55.615234" xlink:href="#ArialMT-46"/>
       <use x="83.398438" xlink:href="#ArialMT-48"/>
       <use x="139.013672" xlink:href="#ArialMT-50"/>
       <use x="194.628906" xlink:href="#ArialMT-53"/>
      </g>
     </g>
    </g>
    <g id="ytick_7">
     <g id="line2d_12">
      <g>
       <use style="fill:#262626;stroke:#262626;" x="37.51925" xlink:href="#m2812ab221a" y="90.173894"/>
      </g>
     </g>
     <g id="text_12">
      <!-- 0.030 -->
      <g style="fill:#262626;" transform="translate(7.2 93.323331)scale(0.088 -0.088)">
       <use xlink:href="#ArialMT-48"/>
       <use x="55.615234" xlink:href="#ArialMT-46"/>
       <use x="83.398438" xlink:href="#ArialMT-48"/>
       <use x="139.013672" xlink:href="#ArialMT-51"/>
       <use x="194.628906" xlink:href="#ArialMT-48"/>
      </g>
     </g>
    </g>
    <g id="ytick_8">
     <g id="line2d_13">
      <g>
       <use style="fill:#262626;stroke:#262626;" x="37.51925" xlink:href="#m2812ab221a" y="56.557626"/>
      </g>
     </g>
     <g id="text_13">
      <!-- 0.035 -->
      <g style="fill:#262626;" transform="translate(7.2 59.707063)scale(0.088 -0.088)">
       <use xlink:href="#ArialMT-48"/>
       <use x="55.615234" xlink:href="#ArialMT-46"/>
       <use x="83.398438" xlink:href="#ArialMT-48"/>
       <use x="139.013672" xlink:href="#ArialMT-51"/>
       <use x="194.628906" xlink:href="#ArialMT-53"/>
      </g>
     </g>
    </g>
    <g id="ytick_9">
     <g id="line2d_14">
      <g>
       <use style="fill:#262626;stroke:#262626;" x="37.51925" xlink:href="#m2812ab221a" y="22.941358"/>
      </g>
     </g>
     <g id="text_14">
      <!-- 0.040 -->
      <g style="fill:#262626;" transform="translate(7.2 26.090796)scale(0.088 -0.088)">
       <use xlink:href="#ArialMT-48"/>
       <use x="55.615234" xlink:href="#ArialMT-46"/>
       <use x="83.398438" xlink:href="#ArialMT-48"/>
       <use x="139.013672" xlink:href="#ArialMT-52"/>
       <use x="194.628906" xlink:href="#ArialMT-48"/>
      </g>
     </g>
    </g>
   </g>
   <g id="PolyCollection_1">
    <path clip-path="url(#p38fd939c6b)" d="M 60.947057 183.818976 
L 60.947057 291.8715 
L 63.061673 291.8715 
L 65.176288 291.8715 
L 67.290904 291.8715 
L 69.405519 291.8715 
L 71.520134 291.8715 
L 73.63475 291.8715 
L 75.749365 291.8715 
L 77.86398 291.8715 
L 79.978596 291.8715 
L 82.093211 291.8715 
L 84.207826 291.8715 
L 86.322442 291.8715 
L 88.437057 291.8715 
L 90.551672 291.8715 
L 92.666288 291.8715 
L 94.780903 291.8715 
L 96.895518 291.8715 
L 99.010134 291.8715 
L 101.124749 291.8715 
L 103.239365 291.8715 
L 105.35398 291.8715 
L 107.468595 291.8715 
L 109.583211 291.8715 
L 111.697826 291.8715 
L 113.812441 291.8715 
L 115.927057 291.8715 
L 118.041672 291.8715 
L 120.156287 291.8715 
L 122.270903 291.8715 
L 124.385518 291.8715 
L 126.500133 291.8715 
L 128.614749 291.8715 
L 130.729364 291.8715 
L 132.843979 291.8715 
L 134.958595 291.8715 
L 137.07321 291.8715 
L 139.187826 291.8715 
L 141.302441 291.8715 
L 143.417056 291.8715 
L 145.531672 291.8715 
L 147.646287 291.8715 
L 149.760902 291.8715 
L 151.875518 291.8715 
L 153.990133 291.8715 
L 156.104748 291.8715 
L 158.219364 291.8715 
L 160.333979 291.8715 
L 162.448594 291.8715 
L 164.56321 291.8715 
L 166.677825 291.8715 
L 168.79244 291.8715 
L 170.907056 291.8715 
L 173.021671 291.8715 
L 175.136287 291.8715 
L 177.250902 291.8715 
L 179.365517 291.8715 
L 181.480133 291.8715 
L 183.594748 291.8715 
L 185.709363 291.8715 
L 187.823979 291.8715 
L 189.938594 291.8715 
L 192.053209 291.8715 
L 194.167825 291.8715 
L 196.28244 291.8715 
L 198.397055 291.8715 
L 200.511671 291.8715 
L 202.626286 291.8715 
L 204.740901 291.8715 
L 206.855517 291.8715 
L 208.970132 291.8715 
L 211.084747 291.8715 
L 213.199363 291.8715 
L 215.313978 291.8715 
L 217.428594 291.8715 
L 219.543209 291.8715 
L 221.657824 291.8715 
L 223.77244 291.8715 
L 225.887055 291.8715 
L 228.00167 291.8715 
L 230.116286 291.8715 
L 232.230901 291.8715 
L 234.345516 291.8715 
L 236.460132 291.8715 
L 238.574747 291.8715 
L 240.689362 291.8715 
L 242.803978 291.8715 
L 244.918593 291.8715 
L 247.033208 291.8715 
L 249.147824 291.8715 
L 251.262439 291.8715 
L 253.377055 291.8715 
L 255.49167 291.8715 
L 257.606285 291.8715 
L 259.720901 291.8715 
L 261.835516 291.8715 
L 263.950131 291.8715 
L 266.064747 291.8715 
L 268.179362 291.8715 
L 270.293977 291.8715 
L 272.408593 291.8715 
L 274.523208 291.8715 
L 276.637823 291.8715 
L 278.752439 291.8715 
L 280.867054 291.8715 
L 282.981669 291.8715 
L 285.096285 291.8715 
L 287.2109 291.8715 
L 289.325516 291.8715 
L 291.440131 291.8715 
L 293.554746 291.8715 
L 295.669362 291.8715 
L 297.783977 291.8715 
L 299.898592 291.8715 
L 302.013208 291.8715 
L 304.127823 291.8715 
L 306.242438 291.8715 
L 308.357054 291.8715 
L 310.471669 291.8715 
L 312.586284 291.8715 
L 314.7009 291.8715 
L 316.815515 291.8715 
L 318.93013 291.8715 
L 321.044746 291.8715 
L 323.159361 291.8715 
L 325.273977 291.8715 
L 327.388592 291.8715 
L 329.503207 291.8715 
L 329.503207 199.414494 
L 329.503207 199.414494 
L 327.388592 209.889381 
L 325.273977 215.885763 
L 323.159361 218.578997 
L 321.044746 219.235011 
L 318.93013 218.88122 
L 316.815515 218.162468 
L 314.7009 217.362728 
L 312.586284 216.522765 
L 310.471669 215.579492 
L 308.357054 214.475906 
L 306.242438 213.219564 
L 304.127823 211.890544 
L 302.013208 210.613996 
L 299.898592 209.518692 
L 297.783977 208.701428 
L 295.669362 208.208275 
L 293.554746 208.031645 
L 291.440131 208.114202 
L 289.325516 208.352289 
L 287.2109 208.600577 
L 285.096285 208.687364 
L 282.981669 208.44817 
L 280.867054 207.773472 
L 278.752439 206.652875 
L 276.637823 205.193098 
L 274.523208 203.596173 
L 272.408593 202.103139 
L 270.293977 200.926558 
L 268.179362 200.201138 
L 266.064747 199.971455 
L 263.950131 200.214788 
L 261.835516 200.878443 
L 259.720901 201.905828 
L 257.606285 203.236646 
L 255.49167 204.785856 
L 253.377055 206.420933 
L 251.262439 207.958645 
L 249.147824 209.191331 
L 247.033208 209.936233 
L 244.918593 210.089054 
L 242.803978 209.659909 
L 240.689362 208.77581 
L 238.574747 207.645279 
L 236.460132 206.493772 
L 234.345516 205.489823 
L 232.230901 204.687542 
L 230.116286 204.007557 
L 228.00167 203.264874 
L 225.887055 202.233223 
L 223.77244 200.720439 
L 221.657824 198.626775 
L 219.543209 195.968684 
L 217.428594 192.867632 
L 215.313978 189.516199 
L 213.199363 186.136209 
L 211.084747 182.938011 
L 208.970132 180.083773 
L 206.855517 177.656858 
L 204.740901 175.643379 
L 202.626286 173.935298 
L 200.511671 172.361222 
L 198.397055 170.740877 
L 196.28244 168.947235 
L 194.167825 166.953466 
L 192.053209 164.844827 
L 189.938594 162.787926 
L 187.823979 160.966806 
L 185.709363 159.510076 
L 183.594748 158.439197 
L 181.480133 157.66099 
L 179.365517 157.008643 
L 177.250902 156.312477 
L 175.136287 155.466355 
L 173.021671 154.457759 
L 170.907056 153.349662 
L 168.79244 152.228792 
L 166.677825 151.150578 
L 164.56321 150.106146 
L 162.448594 149.016528 
L 160.333979 147.740783 
L 158.219364 146.082667 
L 156.104748 143.795163 
L 153.990133 140.59941 
L 151.875518 136.237212 
L 149.760902 130.557921 
L 147.646287 123.611025 
L 145.531672 115.695537 
L 143.417056 107.323937 
L 141.302441 99.094426 
L 139.187826 91.513844 
L 137.07321 84.847079 
L 134.958595 79.064394 
L 132.843979 73.914221 
L 130.729364 69.087241 
L 128.614749 64.391413 
L 126.500133 59.852112 
L 124.385518 55.689426 
L 122.270903 52.186309 
L 120.156287 49.515766 
L 118.041672 47.616053 
L 115.927057 46.179954 
L 113.812441 44.768754 
L 111.697826 43.00074 
L 109.583211 40.727779 
L 107.468595 38.118821 
L 105.35398 35.612211 
L 103.239365 33.757533 
L 101.124749 33.014357 
L 99.010134 33.588733 
L 96.895518 35.364511 
L 94.780903 37.940461 
L 92.666288 40.741995 
L 90.551672 43.160576 
L 88.437057 44.688162 
L 86.322442 45.040567 
L 84.207826 44.276213 
L 82.093211 42.901505 
L 79.978596 41.920665 
L 77.86398 42.764725 
L 75.749365 47.049315 
L 73.63475 56.172179 
L 71.520134 70.848176 
L 69.405519 90.747702 
L 67.290904 114.40733 
L 65.176288 139.497693 
L 63.061673 163.389072 
L 60.947057 183.818976 
z
" style="fill:#b2cd32;fill-opacity:0.25;"/>
   </g>
   <g id="line2d_15">
    <path clip-path="url(#p38fd939c6b)" d="M 60.947057 183.818976 
L 63.061673 163.389072 
L 69.405519 90.747702 
L 71.520134 70.848176 
L 73.63475 56.172179 
L 75.749365 47.049315 
L 77.86398 42.764725 
L 79.978596 41.920665 
L 82.093211 42.901505 
L 84.207826 44.276213 
L 86.322442 45.040567 
L 88.437057 44.688162 
L 90.551672 43.160576 
L 92.666288 40.741995 
L 94.780903 37.940461 
L 96.895518 35.364511 
L 99.010134 33.588733 
L 101.124749 33.014357 
L 103.239365 33.757533 
L 105.35398 35.612211 
L 111.697826 43.00074 
L 113.812441 44.768754 
L 118.041672 47.616053 
L 120.156287 49.515766 
L 122.270903 52.186309 
L 124.385518 55.689426 
L 126.500133 59.852112 
L 130.729364 69.087241 
L 132.843979 73.914221 
L 134.958595 79.064394 
L 137.07321 84.847079 
L 139.187826 91.513844 
L 141.302441 99.094426 
L 147.646287 123.611025 
L 149.760902 130.557921 
L 151.875518 136.237212 
L 153.990133 140.59941 
L 156.104748 143.795163 
L 158.219364 146.082667 
L 160.333979 147.740783 
L 162.448594 149.016528 
L 175.136287 155.466355 
L 177.250902 156.312477 
L 183.594748 158.439197 
L 185.709363 159.510076 
L 187.823979 160.966806 
L 189.938594 162.787926 
L 196.28244 168.947235 
L 198.397055 170.740877 
L 204.740901 175.643379 
L 206.855517 177.656858 
L 208.970132 180.083773 
L 211.084747 182.938011 
L 215.313978 189.516199 
L 217.428594 192.867632 
L 219.543209 195.968684 
L 221.657824 198.626775 
L 223.77244 200.720439 
L 225.887055 202.233223 
L 228.00167 203.264874 
L 234.345516 205.489823 
L 236.460132 206.493772 
L 240.689362 208.77581 
L 242.803978 209.659909 
L 244.918593 210.089054 
L 247.033208 209.936233 
L 249.147824 209.191331 
L 251.262439 207.958645 
L 259.720901 201.905828 
L 261.835516 200.878443 
L 263.950131 200.214788 
L 266.064747 199.971455 
L 268.179362 200.201138 
L 270.293977 200.926558 
L 272.408593 202.103139 
L 278.752439 206.652875 
L 280.867054 207.773472 
L 282.981669 208.44817 
L 285.096285 208.687364 
L 287.2109 208.600577 
L 291.440131 208.114202 
L 293.554746 208.031645 
L 295.669362 208.208275 
L 297.783977 208.701428 
L 299.898592 209.518692 
L 302.013208 210.613996 
L 308.357054 214.475906 
L 310.471669 215.579492 
L 314.7009 217.362728 
L 318.93013 218.88122 
L 321.044746 219.235011 
L 323.159361 218.578997 
L 325.273977 215.885763 
L 327.388592 209.889381 
L 329.503207 199.414494 
L 329.503207 199.414494 
" style="fill:none;stroke:#b2cd32;stroke-linecap:round;stroke-width:1.2;"/>
   </g>
   <g id="line2d_16">
    <path clip-path="url(#p38fd939c6b)" d="M 139.335728 291.8715 
L 139.335728 20.0715 
" style="fill:none;stroke:#b2cd32;stroke-linecap:round;stroke-width:1.2;"/>
   </g>
   <g id="patch_3">
    <path d="M 37.51925 291.8715 
L 37.51925 20.0715 
" style="fill:none;stroke:#262626;stroke-linecap:square;stroke-linejoin:miter;"/>
   </g>
   <g id="patch_4">
    <path d="M 47.51925 301.8715 
L 342.931015 301.8715 
" style="fill:none;stroke:#262626;stroke-linecap:square;stroke-linejoin:miter;"/>
   </g>
   <g id="text_15">
    <!-- buildings -->
    <defs>
     <path d="M 14.703125 0 
L 6.546875 0 
L 6.546875 71.578125 
L 15.328125 71.578125 
L 15.328125 46.046875 
Q 20.90625 53.03125 29.546875 53.03125 
Q 34.328125 53.03125 38.59375 51.09375 
Q 42.875 49.171875 45.625 45.671875 
Q 48.390625 42.1875 49.953125 37.25 
Q 51.515625 32.328125 51.515625 26.703125 
Q 51.515625 13.375 44.921875 6.09375 
Q 38.328125 -1.171875 29.109375 -1.171875 
Q 19.921875 -1.171875 14.703125 6.5 
z
M 14.59375 26.3125 
Q 14.59375 17 17.140625 12.84375 
Q 21.296875 6.0625 28.375 6.0625 
Q 34.125 6.0625 38.328125 11.0625 
Q 42.53125 16.0625 42.53125 25.984375 
Q 42.53125 36.140625 38.5 40.96875 
Q 34.46875 45.796875 28.765625 45.796875 
Q 23 45.796875 18.796875 40.796875 
Q 14.59375 35.796875 14.59375 26.3125 
z
" id="ArialMT-98"/>
     <path d="M 40.578125 0 
L 40.578125 7.625 
Q 34.515625 -1.171875 24.125 -1.171875 
Q 19.53125 -1.171875 15.546875 0.578125 
Q 11.578125 2.34375 9.640625 5 
Q 7.71875 7.671875 6.9375 11.53125 
Q 6.390625 14.109375 6.390625 19.734375 
L 6.390625 51.859375 
L 15.1875 51.859375 
L 15.1875 23.09375 
Q 15.1875 16.21875 15.71875 13.8125 
Q 16.546875 10.359375 19.234375 8.375 
Q 21.921875 6.390625 25.875 6.390625 
Q 29.828125 6.390625 33.296875 8.421875 
Q 36.765625 10.453125 38.203125 13.9375 
Q 39.65625 17.4375 39.65625 24.078125 
L 39.65625 51.859375 
L 48.4375 51.859375 
L 48.4375 0 
z
" id="ArialMT-117"/>
     <path d="M 6.640625 61.46875 
L 6.640625 71.578125 
L 15.4375 71.578125 
L 15.4375 61.46875 
z
M 6.640625 0 
L 6.640625 51.859375 
L 15.4375 51.859375 
L 15.4375 0 
z
" id="ArialMT-105"/>
     <path d="M 6.390625 0 
L 6.390625 71.578125 
L 15.1875 71.578125 
L 15.1875 0 
z
" id="ArialMT-108"/>
     <path d="M 40.234375 0 
L 40.234375 6.546875 
Q 35.296875 -1.171875 25.734375 -1.171875 
Q 19.53125 -1.171875 14.328125 2.25 
Q 9.125 5.671875 6.265625 11.796875 
Q 3.421875 17.921875 3.421875 25.875 
Q 3.421875 33.640625 6 39.96875 
Q 8.59375 46.296875 13.765625 49.65625 
Q 18.953125 53.03125 25.34375 53.03125 
Q 30.03125 53.03125 33.6875 51.046875 
Q 37.359375 49.078125 39.65625 45.90625 
L 39.65625 71.578125 
L 48.390625 71.578125 
L 48.390625 0 
z
M 12.453125 25.875 
Q 12.453125 15.921875 16.640625 10.984375 
Q 20.84375 6.0625 26.5625 6.0625 
Q 32.328125 6.0625 36.34375 10.765625 
Q 40.375 15.484375 40.375 25.140625 
Q 40.375 35.796875 36.265625 40.765625 
Q 32.171875 45.75 26.171875 45.75 
Q 20.3125 45.75 16.375 40.96875 
Q 12.453125 36.1875 12.453125 25.875 
z
" id="ArialMT-100"/>
     <path d="M 6.59375 0 
L 6.59375 51.859375 
L 14.5 51.859375 
L 14.5 44.484375 
Q 20.21875 53.03125 31 53.03125 
Q 35.6875 53.03125 39.625 51.34375 
Q 43.5625 49.65625 45.515625 46.921875 
Q 47.46875 44.1875 48.25 40.4375 
Q 48.734375 37.984375 48.734375 31.890625 
L 48.734375 0 
L 39.9375 0 
L 39.9375 31.546875 
Q 39.9375 36.921875 38.90625 39.578125 
Q 37.890625 42.234375 35.28125 43.8125 
Q 32.671875 45.40625 29.15625 45.40625 
Q 23.53125 45.40625 19.453125 41.84375 
Q 15.375 38.28125 15.375 28.328125 
L 15.375 0 
z
" id="ArialMT-110"/>
     <path d="M 4.984375 -4.296875 
L 13.53125 -5.5625 
Q 14.0625 -9.515625 16.5 -11.328125 
Q 19.78125 -13.765625 25.4375 -13.765625 
Q 31.546875 -13.765625 34.859375 -11.328125 
Q 38.1875 -8.890625 39.359375 -4.5 
Q 40.046875 -1.8125 39.984375 6.78125 
Q 34.234375 0 25.640625 0 
Q 14.9375 0 9.078125 7.71875 
Q 3.21875 15.4375 3.21875 26.21875 
Q 3.21875 33.640625 5.90625 39.90625 
Q 8.59375 46.1875 13.6875 49.609375 
Q 18.796875 53.03125 25.6875 53.03125 
Q 34.859375 53.03125 40.828125 45.609375 
L 40.828125 51.859375 
L 48.921875 51.859375 
L 48.921875 7.03125 
Q 48.921875 -5.078125 46.453125 -10.125 
Q 44 -15.1875 38.640625 -18.109375 
Q 33.296875 -21.046875 25.484375 -21.046875 
Q 16.21875 -21.046875 10.5 -16.875 
Q 4.78125 -12.703125 4.984375 -4.296875 
z
M 12.25 26.859375 
Q 12.25 16.65625 16.296875 11.96875 
Q 20.359375 7.28125 26.46875 7.28125 
Q 32.515625 7.28125 36.609375 11.9375 
Q 40.71875 16.609375 40.71875 26.5625 
Q 40.71875 36.078125 36.5 40.90625 
Q 32.28125 45.75 26.3125 45.75 
Q 20.453125 45.75 16.34375 40.984375 
Q 12.25 36.234375 12.25 26.859375 
z
" id="ArialMT-103"/>
     <path d="M 3.078125 15.484375 
L 11.765625 16.84375 
Q 12.5 11.625 15.84375 8.84375 
Q 19.1875 6.0625 25.203125 6.0625 
Q 31.25 6.0625 34.171875 8.515625 
Q 37.109375 10.984375 37.109375 14.3125 
Q 37.109375 17.28125 34.515625 19 
Q 32.71875 20.171875 25.53125 21.96875 
Q 15.875 24.421875 12.140625 26.203125 
Q 8.40625 27.984375 6.46875 31.125 
Q 4.546875 34.28125 4.546875 38.09375 
Q 4.546875 41.546875 6.125 44.5 
Q 7.71875 47.46875 10.453125 49.421875 
Q 12.5 50.921875 16.03125 51.96875 
Q 19.578125 53.03125 23.640625 53.03125 
Q 29.734375 53.03125 34.34375 51.265625 
Q 38.96875 49.515625 41.15625 46.5 
Q 43.359375 43.5 44.1875 38.484375 
L 35.59375 37.3125 
Q 35.015625 41.3125 32.203125 43.546875 
Q 29.390625 45.796875 24.265625 45.796875 
Q 18.21875 45.796875 15.625 43.796875 
Q 13.03125 41.796875 13.03125 39.109375 
Q 13.03125 37.40625 14.109375 36.03125 
Q 15.1875 34.625 17.484375 33.6875 
Q 18.796875 33.203125 25.25 31.453125 
Q 34.578125 28.953125 38.25 27.359375 
Q 41.9375 25.78125 44.03125 22.75 
Q 46.140625 19.734375 46.140625 15.234375 
Q 46.140625 10.84375 43.578125 6.953125 
Q 41.015625 3.078125 36.171875 0.953125 
Q 31.34375 -1.171875 25.25 -1.171875 
Q 15.140625 -1.171875 9.84375 3.03125 
Q 4.546875 7.234375 3.078125 15.484375 
z
" id="ArialMT-115"/>
    </defs>
    <g style="fill:#262626;" transform="translate(176.279382 14.0715)scale(0.096 -0.096)">
     <use xlink:href="#ArialMT-98"/>
     <use x="55.615234" xlink:href="#ArialMT-117"/>
     <use x="111.230469" xlink:href="#ArialMT-105"/>
     <use x="133.447266" xlink:href="#ArialMT-108"/>
     <use x="155.664062" xlink:href="#ArialMT-100"/>
     <use x="211.279297" xlink:href="#ArialMT-105"/>
     <use x="233.496094" xlink:href="#ArialMT-110"/>
     <use x="289.111328" xlink:href="#ArialMT-103"/>
     <use x="344.726562" xlink:href="#ArialMT-115"/>
    </g>
   </g>
  </g>
  <g id="axes_2">
   <g id="patch_5">
    <path d="M 402.013368 291.8715 
L 697.425132 291.8715 
L 697.425132 20.0715 
L 402.013368 20.0715 
z
" style="fill:#ffffff;"/>
   </g>
   <g id="matplotlib.axis_3">
    <g id="xtick_6">
     <g id="line2d_17">
      <g>
       <use style="fill:#262626;stroke:#262626;" x="415.441175" xlink:href="#mbaadda8d71" y="301.8715"/>
      </g>
     </g>
     <g id="text_16">
      <!-- 0 -->
      <g style="fill:#262626;" transform="translate(412.994363 316.470375)scale(0.088 -0.088)">
       <use xlink:href="#ArialMT-48"/>
      </g>
     </g>
    </g>
    <g id="xtick_7">
     <g id="line2d_18">
      <g>
       <use style="fill:#262626;stroke:#262626;" x="475.12032" xlink:href="#mbaadda8d71" y="301.8715"/>
      </g>
     </g>
     <g id="text_17">
      <!-- 10 -->
      <g style="fill:#262626;" transform="translate(470.226695 316.470375)scale(0.088 -0.088)">
       <use xlink:href="#ArialMT-49"/>
       <use x="55.615234" xlink:href="#ArialMT-48"/>
      </g>
     </g>
    </g>
    <g id="xtick_8">
     <g id="line2d_19">
      <g>
       <use style="fill:#262626;stroke:#262626;" x="534.799464" xlink:href="#mbaadda8d71" y="301.8715"/>
      </g>
     </g>
     <g id="text_18">
      <!-- 20 -->
      <g style="fill:#262626;" transform="translate(529.905839 316.470375)scale(0.088 -0.088)">
       <use xlink:href="#ArialMT-50"/>
       <use x="55.615234" xlink:href="#ArialMT-48"/>
      </g>
     </g>
    </g>
    <g id="xtick_9">
     <g id="line2d_20">
      <g>
       <use style="fill:#262626;stroke:#262626;" x="594.478608" xlink:href="#mbaadda8d71" y="301.8715"/>
      </g>
     </g>
     <g id="text_19">
      <!-- 30 -->
      <g style="fill:#262626;" transform="translate(589.584983 316.470375)scale(0.088 -0.088)">
       <use xlink:href="#ArialMT-51"/>
       <use x="55.615234" xlink:href="#ArialMT-48"/>
      </g>
     </g>
    </g>
    <g id="xtick_10">
     <g id="line2d_21">
      <g>
       <use style="fill:#262626;stroke:#262626;" x="654.157753" xlink:href="#mbaadda8d71" y="301.8715"/>
      </g>
     </g>
     <g id="text_20">
      <!-- 40 -->
      <g style="fill:#262626;" transform="translate(649.264128 316.470375)scale(0.088 -0.088)">
       <use xlink:href="#ArialMT-52"/>
       <use x="55.615234" xlink:href="#ArialMT-48"/>
      </g>
     </g>
    </g>
   </g>
   <g id="matplotlib.axis_4">
    <g id="ytick_10">
     <g id="line2d_22">
      <g>
       <use style="fill:#262626;stroke:#262626;" x="392.013368" xlink:href="#m2812ab221a" y="291.8715"/>
      </g>
     </g>
     <g id="text_21">
      <!-- 0.000 -->
      <g style="fill:#262626;" transform="translate(361.694118 295.020938)scale(0.088 -0.088)">
       <use xlink:href="#ArialMT-48"/>
       <use x="55.615234" xlink:href="#ArialMT-46"/>
       <use x="83.398438" xlink:href="#ArialMT-48"/>
       <use x="139.013672" xlink:href="#ArialMT-48"/>
       <use x="194.628906" xlink:href="#ArialMT-48"/>
      </g>
     </g>
    </g>
    <g id="ytick_11">
     <g id="line2d_23">
      <g>
       <use style="fill:#262626;stroke:#262626;" x="392.013368" xlink:href="#m2812ab221a" y="253.45204"/>
      </g>
     </g>
     <g id="text_22">
      <!-- 0.005 -->
      <g style="fill:#262626;" transform="translate(361.694118 256.601478)scale(0.088 -0.088)">
       <use xlink:href="#ArialMT-48"/>
       <use x="55.615234" xlink:href="#ArialMT-46"/>
       <use x="83.398438" xlink:href="#ArialMT-48"/>
       <use x="139.013672" xlink:href="#ArialMT-48"/>
       <use x="194.628906" xlink:href="#ArialMT-53"/>
      </g>
     </g>
    </g>
    <g id="ytick_12">
     <g id="line2d_24">
      <g>
       <use style="fill:#262626;stroke:#262626;" x="392.013368" xlink:href="#m2812ab221a" y="215.032581"/>
      </g>
     </g>
     <g id="text_23">
      <!-- 0.010 -->
      <g style="fill:#262626;" transform="translate(361.694118 218.182018)scale(0.088 -0.088)">
       <use xlink:href="#ArialMT-48"/>
       <use x="55.615234" xlink:href="#ArialMT-46"/>
       <use x="83.398438" xlink:href="#ArialMT-48"/>
       <use x="139.013672" xlink:href="#ArialMT-49"/>
       <use x="194.628906" xlink:href="#ArialMT-48"/>
      </g>
     </g>
    </g>
    <g id="ytick_13">
     <g id="line2d_25">
      <g>
       <use style="fill:#262626;stroke:#262626;" x="392.013368" xlink:href="#m2812ab221a" y="176.613121"/>
      </g>
     </g>
     <g id="text_24">
      <!-- 0.015 -->
      <g style="fill:#262626;" transform="translate(361.694118 179.762558)scale(0.088 -0.088)">
       <use xlink:href="#ArialMT-48"/>
       <use x="55.615234" xlink:href="#ArialMT-46"/>
       <use x="83.398438" xlink:href="#ArialMT-48"/>
       <use x="139.013672" xlink:href="#ArialMT-49"/>
       <use x="194.628906" xlink:href="#ArialMT-53"/>
      </g>
     </g>
    </g>
    <g id="ytick_14">
     <g id="line2d_26">
      <g>
       <use style="fill:#262626;stroke:#262626;" x="392.013368" xlink:href="#m2812ab221a" y="138.193661"/>
      </g>
     </g>
     <g id="text_25">
      <!-- 0.020 -->
      <g style="fill:#262626;" transform="translate(361.694118 141.343099)scale(0.088 -0.088)">
       <use xlink:href="#ArialMT-48"/>
       <use x="55.615234" xlink:href="#ArialMT-46"/>
       <use x="83.398438" xlink:href="#ArialMT-48"/>
       <use x="139.013672" xlink:href="#ArialMT-50"/>
       <use x="194.628906" xlink:href="#ArialMT-48"/>
      </g>
     </g>
    </g>
    <g id="ytick_15">
     <g id="line2d_27">
      <g>
       <use style="fill:#262626;stroke:#262626;" x="392.013368" xlink:href="#m2812ab221a" y="99.774201"/>
      </g>
     </g>
     <g id="text_26">
      <!-- 0.025 -->
      <g style="fill:#262626;" transform="translate(361.694118 102.923639)scale(0.088 -0.088)">
       <use xlink:href="#ArialMT-48"/>
       <use x="55.615234" xlink:href="#ArialMT-46"/>
       <use x="83.398438" xlink:href="#ArialMT-48"/>
       <use x="139.013672" xlink:href="#ArialMT-50"/>
       <use x="194.628906" xlink:href="#ArialMT-53"/>
      </g>
     </g>
    </g>
    <g id="ytick_16">
     <g id="line2d_28">
      <g>
       <use style="fill:#262626;stroke:#262626;" x="392.013368" xlink:href="#m2812ab221a" y="61.354742"/>
      </g>
     </g>
     <g id="text_27">
      <!-- 0.030 -->
      <g style="fill:#262626;" transform="translate(361.694118 64.504179)scale(0.088 -0.088)">
       <use xlink:href="#ArialMT-48"/>
       <use x="55.615234" xlink:href="#ArialMT-46"/>
       <use x="83.398438" xlink:href="#ArialMT-48"/>
       <use x="139.013672" xlink:href="#ArialMT-51"/>
       <use x="194.628906" xlink:href="#ArialMT-48"/>
      </g>
     </g>
    </g>
    <g id="ytick_17">
     <g id="line2d_29">
      <g>
       <use style="fill:#262626;stroke:#262626;" x="392.013368" xlink:href="#m2812ab221a" y="22.935282"/>
      </g>
     </g>
     <g id="text_28">
      <!-- 0.035 -->
      <g style="fill:#262626;" transform="translate(361.694118 26.084719)scale(0.088 -0.088)">
       <use xlink:href="#ArialMT-48"/>
       <use x="55.615234" xlink:href="#ArialMT-46"/>
       <use x="83.398438" xlink:href="#ArialMT-48"/>
       <use x="139.013672" xlink:href="#ArialMT-51"/>
       <use x="194.628906" xlink:href="#ArialMT-53"/>
      </g>
     </g>
    </g>
   </g>
   <g id="PolyCollection_2">
    <path clip-path="url(#pe7e3b17958)" d="M 415.441175 167.341998 
L 415.441175 291.8715 
L 417.55579 291.8715 
L 419.670406 291.8715 
L 421.785021 291.8715 
L 423.899637 291.8715 
L 426.014252 291.8715 
L 428.128867 291.8715 
L 430.243483 291.8715 
L 432.358098 291.8715 
L 434.472713 291.8715 
L 436.587329 291.8715 
L 438.701944 291.8715 
L 440.816559 291.8715 
L 442.931175 291.8715 
L 445.04579 291.8715 
L 447.160405 291.8715 
L 449.275021 291.8715 
L 451.389636 291.8715 
L 453.504251 291.8715 
L 455.618867 291.8715 
L 457.733482 291.8715 
L 459.848098 291.8715 
L 461.962713 291.8715 
L 464.077328 291.8715 
L 466.191944 291.8715 
L 468.306559 291.8715 
L 470.421174 291.8715 
L 472.53579 291.8715 
L 474.650405 291.8715 
L 476.76502 291.8715 
L 478.879636 291.8715 
L 480.994251 291.8715 
L 483.108866 291.8715 
L 485.223482 291.8715 
L 487.338097 291.8715 
L 489.452712 291.8715 
L 491.567328 291.8715 
L 493.681943 291.8715 
L 495.796559 291.8715 
L 497.911174 291.8715 
L 500.025789 291.8715 
L 502.140405 291.8715 
L 504.25502 291.8715 
L 506.369635 291.8715 
L 508.484251 291.8715 
L 510.598866 291.8715 
L 512.713481 291.8715 
L 514.828097 291.8715 
L 516.942712 291.8715 
L 519.057327 291.8715 
L 521.171943 291.8715 
L 523.286558 291.8715 
L 525.401173 291.8715 
L 527.515789 291.8715 
L 529.630404 291.8715 
L 531.74502 291.8715 
L 533.859635 291.8715 
L 535.97425 291.8715 
L 538.088866 291.8715 
L 540.203481 291.8715 
L 542.318096 291.8715 
L 544.432712 291.8715 
L 546.547327 291.8715 
L 548.661942 291.8715 
L 550.776558 291.8715 
L 552.891173 291.8715 
L 555.005788 291.8715 
L 557.120404 291.8715 
L 559.235019 291.8715 
L 561.349634 291.8715 
L 563.46425 291.8715 
L 565.578865 291.8715 
L 567.69348 291.8715 
L 569.808096 291.8715 
L 571.922711 291.8715 
L 574.037327 291.8715 
L 576.151942 291.8715 
L 578.266557 291.8715 
L 580.381173 291.8715 
L 582.495788 291.8715 
L 584.610403 291.8715 
L 586.725019 291.8715 
L 588.839634 291.8715 
L 590.954249 291.8715 
L 593.068865 291.8715 
L 595.18348 291.8715 
L 597.298095 291.8715 
L 599.412711 291.8715 
L 601.527326 291.8715 
L 603.641941 291.8715 
L 605.756557 291.8715 
L 607.871172 291.8715 
L 609.985788 291.8715 
L 612.100403 291.8715 
L 614.215018 291.8715 
L 616.329634 291.8715 
L 618.444249 291.8715 
L 620.558864 291.8715 
L 622.67348 291.8715 
L 624.788095 291.8715 
L 626.90271 291.8715 
L 629.017326 291.8715 
L 631.131941 291.8715 
L 633.246556 291.8715 
L 635.361172 291.8715 
L 637.475787 291.8715 
L 639.590402 291.8715 
L 641.705018 291.8715 
L 643.819633 291.8715 
L 645.934249 291.8715 
L 648.048864 291.8715 
L 650.163479 291.8715 
L 652.278095 291.8715 
L 654.39271 291.8715 
L 656.507325 291.8715 
L 658.621941 291.8715 
L 660.736556 291.8715 
L 662.851171 291.8715 
L 664.965787 291.8715 
L 667.080402 291.8715 
L 669.195017 291.8715 
L 671.309633 291.8715 
L 673.424248 291.8715 
L 675.538863 291.8715 
L 677.653479 291.8715 
L 679.768094 291.8715 
L 681.88271 291.8715 
L 683.997325 291.8715 
L 683.997325 179.345368 
L 683.997325 179.345368 
L 681.88271 186.492527 
L 679.768094 189.525088 
L 677.653479 189.664682 
L 675.538863 188.195352 
L 673.424248 186.155265 
L 671.309633 184.204476 
L 669.195017 182.646107 
L 667.080402 181.529827 
L 664.965787 180.767536 
L 662.851171 180.221351 
L 660.736556 179.756223 
L 658.621941 179.267238 
L 656.507325 178.693502 
L 654.39271 178.024049 
L 652.278095 177.295092 
L 650.163479 176.57652 
L 648.048864 175.948462 
L 645.934249 175.473292 
L 643.819633 175.171341 
L 641.705018 175.008369 
L 639.590402 174.899617 
L 637.475787 174.730329 
L 635.361172 174.387618 
L 633.246556 173.794664 
L 631.131941 172.936476 
L 629.017326 171.868177 
L 626.90271 170.702394 
L 624.788095 169.580434 
L 622.67348 168.638631 
L 620.558864 167.982371 
L 618.444249 167.674675 
L 616.329634 167.737408 
L 614.215018 168.157136 
L 612.100403 168.888196 
L 609.985788 169.851648 
L 607.871172 170.935241 
L 605.756557 172.001524 
L 603.641941 172.907371 
L 601.527326 173.531366 
L 599.412711 173.800023 
L 597.298095 173.702735 
L 595.18348 173.289046 
L 593.068865 172.648402 
L 590.954249 171.879112 
L 588.839634 171.057295 
L 586.725019 170.216399 
L 584.610403 169.343589 
L 582.495788 168.392541 
L 580.381173 167.306166 
L 578.266557 166.040053 
L 576.151942 164.578879 
L 574.037327 162.94209 
L 571.922711 161.179246 
L 569.808096 159.357881 
L 567.69348 157.547299 
L 565.578865 155.801785 
L 563.46425 154.146942 
L 561.349634 152.572976 
L 559.235019 151.03786 
L 557.120404 149.480802 
L 555.005788 147.843056 
L 552.891173 146.090307 
L 550.776558 144.229629 
L 548.661942 142.314827 
L 546.547327 140.436541 
L 544.432712 138.697798 
L 542.318096 137.181217 
L 540.203481 135.919216 
L 538.088866 134.880244 
L 535.97425 133.979625 
L 533.859635 133.11311 
L 531.74502 132.199269 
L 529.630404 131.210428 
L 527.515789 130.175974 
L 525.401173 129.155488 
L 523.286558 128.194779 
L 521.171943 127.285992 
L 519.057327 126.348872 
L 516.942712 125.237431 
L 514.828097 123.763951 
L 512.713481 121.728406 
L 510.598866 118.946667 
L 508.484251 115.278981 
L 506.369635 110.662939 
L 504.25502 105.149232 
L 502.140405 98.927882 
L 500.025789 92.326006 
L 497.911174 85.762628 
L 495.796559 79.662567 
L 493.681943 74.352889 
L 491.567328 69.979917 
L 489.452712 66.4825 
L 487.338097 63.636355 
L 485.223482 61.153577 
L 483.108866 58.795976 
L 480.994251 56.453848 
L 478.879636 54.157369 
L 476.76502 52.018963 
L 474.650405 50.137294 
L 472.53579 48.512075 
L 470.421174 47.014353 
L 468.306559 45.430754 
L 466.191944 43.563833 
L 464.077328 41.341637 
L 461.962713 38.882575 
L 459.848098 36.480781 
L 457.733482 34.513336 
L 455.618867 33.306303 
L 453.504251 33.014357 
L 451.389636 33.561202 
L 449.275021 34.660256 
L 447.160405 35.902305 
L 445.04579 36.875755 
L 442.931175 37.284376 
L 440.816559 37.042864 
L 438.701944 36.347312 
L 436.587329 35.720756 
L 434.472713 36.018998 
L 432.358098 38.361356 
L 430.243483 43.948176 
L 428.128867 53.760289 
L 426.014252 68.201398 
L 423.899637 86.810174 
L 421.785021 108.187492 
L 419.670406 130.224702 
L 417.55579 150.59493 
L 415.441175 167.341998 
z
" style="fill:#ee5951;fill-opacity:0.25;"/>
   </g>
   <g id="line2d_30">
    <path clip-path="url(#pe7e3b17958)" d="M 415.441175 167.341998 
L 417.55579 150.59493 
L 419.670406 130.224702 
L 423.899637 86.810174 
L 426.014252 68.201398 
L 428.128867 53.760289 
L 430.243483 43.948176 
L 432.358098 38.361356 
L 434.472713 36.018998 
L 436.587329 35.720756 
L 440.816559 37.042864 
L 442.931175 37.284376 
L 445.04579 36.875755 
L 447.160405 35.902305 
L 449.275021 34.660256 
L 451.389636 33.561202 
L 453.504251 33.014357 
L 455.618867 33.306303 
L 457.733482 34.513336 
L 459.848098 36.480781 
L 466.191944 43.563833 
L 468.306559 45.430754 
L 474.650405 50.137294 
L 476.76502 52.018963 
L 478.879636 54.157369 
L 485.223482 61.153577 
L 487.338097 63.636355 
L 489.452712 66.4825 
L 491.567328 69.979917 
L 493.681943 74.352889 
L 495.796559 79.662567 
L 497.911174 85.762628 
L 504.25502 105.149232 
L 506.369635 110.662939 
L 508.484251 115.278981 
L 510.598866 118.946667 
L 512.713481 121.728406 
L 514.828097 123.763951 
L 516.942712 125.237431 
L 519.057327 126.348872 
L 527.515789 130.175974 
L 531.74502 132.199269 
L 540.203481 135.919216 
L 542.318096 137.181217 
L 544.432712 138.697798 
L 548.661942 142.314827 
L 552.891173 146.090307 
L 557.120404 149.480802 
L 565.578865 155.801785 
L 571.922711 161.179246 
L 576.151942 164.578879 
L 578.266557 166.040053 
L 580.381173 167.306166 
L 582.495788 168.392541 
L 586.725019 170.216399 
L 593.068865 172.648402 
L 595.18348 173.289046 
L 597.298095 173.702735 
L 599.412711 173.800023 
L 601.527326 173.531366 
L 603.641941 172.907371 
L 605.756557 172.001524 
L 612.100403 168.888196 
L 614.215018 168.157136 
L 616.329634 167.737408 
L 618.444249 167.674675 
L 620.558864 167.982371 
L 622.67348 168.638631 
L 624.788095 169.580434 
L 631.131941 172.936476 
L 633.246556 173.794664 
L 635.361172 174.387618 
L 637.475787 174.730329 
L 645.934249 175.473292 
L 648.048864 175.948462 
L 652.278095 177.295092 
L 656.507325 178.693502 
L 660.736556 179.756223 
L 664.965787 180.767536 
L 667.080402 181.529827 
L 669.195017 182.646107 
L 671.309633 184.204476 
L 675.538863 188.195352 
L 677.653479 189.664682 
L 679.768094 189.525088 
L 681.88271 186.492527 
L 683.997325 179.345368 
L 683.997325 179.345368 
" style="fill:none;stroke:#ee5951;stroke-linecap:round;stroke-width:1.2;"/>
   </g>
   <g id="line2d_31">
    <path clip-path="url(#pe7e3b17958)" d="M 508.681676 291.8715 
L 508.681676 20.0715 
" style="fill:none;stroke:#ee5951;stroke-linecap:round;stroke-width:1.2;"/>
   </g>
   <g id="patch_6">
    <path d="M 392.013368 291.8715 
L 392.013368 20.0715 
" style="fill:none;stroke:#262626;stroke-linecap:square;stroke-linejoin:miter;"/>
   </g>
   <g id="patch_7">
    <path d="M 402.013368 301.8715 
L 697.425132 301.8715 
" style="fill:none;stroke:#262626;stroke-linecap:square;stroke-linejoin:miter;"/>
   </g>
   <g id="text_29">
    <!-- tessellation cells -->
    <defs>
     <path d="M 25.78125 7.859375 
L 27.046875 0.09375 
Q 23.34375 -0.6875 20.40625 -0.6875 
Q 15.625 -0.6875 12.984375 0.828125 
Q 10.359375 2.34375 9.28125 4.8125 
Q 8.203125 7.28125 8.203125 15.1875 
L 8.203125 45.015625 
L 1.765625 45.015625 
L 1.765625 51.859375 
L 8.203125 51.859375 
L 8.203125 64.703125 
L 16.9375 69.96875 
L 16.9375 51.859375 
L 25.78125 51.859375 
L 25.78125 45.015625 
L 16.9375 45.015625 
L 16.9375 14.703125 
Q 16.9375 10.9375 17.40625 9.859375 
Q 17.875 8.796875 18.921875 8.15625 
Q 19.96875 7.515625 21.921875 7.515625 
Q 23.390625 7.515625 25.78125 7.859375 
z
" id="ArialMT-116"/>
     <path d="M 42.09375 16.703125 
L 51.171875 15.578125 
Q 49.03125 7.625 43.21875 3.21875 
Q 37.40625 -1.171875 28.375 -1.171875 
Q 17 -1.171875 10.328125 5.828125 
Q 3.65625 12.84375 3.65625 25.484375 
Q 3.65625 38.578125 10.390625 45.796875 
Q 17.140625 53.03125 27.875 53.03125 
Q 38.28125 53.03125 44.875 45.953125 
Q 51.46875 38.875 51.46875 26.03125 
Q 51.46875 25.25 51.421875 23.6875 
L 12.75 23.6875 
Q 13.234375 15.140625 17.578125 10.59375 
Q 21.921875 6.0625 28.421875 6.0625 
Q 33.25 6.0625 36.671875 8.59375 
Q 40.09375 11.140625 42.09375 16.703125 
z
M 13.234375 30.90625 
L 42.1875 30.90625 
Q 41.609375 37.453125 38.875 40.71875 
Q 34.671875 45.796875 27.984375 45.796875 
Q 21.921875 45.796875 17.796875 41.75 
Q 13.671875 37.703125 13.234375 30.90625 
z
" id="ArialMT-101"/>
     <path d="M 40.4375 6.390625 
Q 35.546875 2.25 31.03125 0.53125 
Q 26.515625 -1.171875 21.34375 -1.171875 
Q 12.796875 -1.171875 8.203125 3 
Q 3.609375 7.171875 3.609375 13.671875 
Q 3.609375 17.484375 5.34375 20.625 
Q 7.078125 23.78125 9.890625 25.6875 
Q 12.703125 27.59375 16.21875 28.5625 
Q 18.796875 29.25 24.03125 29.890625 
Q 34.671875 31.15625 39.703125 32.90625 
Q 39.75 34.71875 39.75 35.203125 
Q 39.75 40.578125 37.25 42.78125 
Q 33.890625 45.75 27.25 45.75 
Q 21.046875 45.75 18.09375 43.578125 
Q 15.140625 41.40625 13.71875 35.890625 
L 5.125 37.0625 
Q 6.296875 42.578125 8.984375 45.96875 
Q 11.671875 49.359375 16.75 51.1875 
Q 21.828125 53.03125 28.515625 53.03125 
Q 35.15625 53.03125 39.296875 51.46875 
Q 43.453125 49.90625 45.40625 47.53125 
Q 47.359375 45.171875 48.140625 41.546875 
Q 48.578125 39.3125 48.578125 33.453125 
L 48.578125 21.734375 
Q 48.578125 9.46875 49.140625 6.21875 
Q 49.703125 2.984375 51.375 0 
L 42.1875 0 
Q 40.828125 2.734375 40.4375 6.390625 
z
M 39.703125 26.03125 
Q 34.90625 24.078125 25.34375 22.703125 
Q 19.921875 21.921875 17.671875 20.9375 
Q 15.4375 19.96875 14.203125 18.09375 
Q 12.984375 16.21875 12.984375 13.921875 
Q 12.984375 10.40625 15.640625 8.0625 
Q 18.3125 5.71875 23.4375 5.71875 
Q 28.515625 5.71875 32.46875 7.9375 
Q 36.421875 10.15625 38.28125 14.015625 
Q 39.703125 17 39.703125 22.796875 
z
" id="ArialMT-97"/>
     <path d="M 3.328125 25.921875 
Q 3.328125 40.328125 11.328125 47.265625 
Q 18.015625 53.03125 27.640625 53.03125 
Q 38.328125 53.03125 45.109375 46.015625 
Q 51.90625 39.015625 51.90625 26.65625 
Q 51.90625 16.65625 48.90625 10.90625 
Q 45.90625 5.171875 40.15625 2 
Q 34.421875 -1.171875 27.640625 -1.171875 
Q 16.75 -1.171875 10.03125 5.8125 
Q 3.328125 12.796875 3.328125 25.921875 
z
M 12.359375 25.921875 
Q 12.359375 15.96875 16.703125 11.015625 
Q 21.046875 6.0625 27.640625 6.0625 
Q 34.1875 6.0625 38.53125 11.03125 
Q 42.875 16.015625 42.875 26.21875 
Q 42.875 35.84375 38.5 40.796875 
Q 34.125 45.75 27.640625 45.75 
Q 21.046875 45.75 16.703125 40.8125 
Q 12.359375 35.890625 12.359375 25.921875 
z
" id="ArialMT-111"/>
     <path id="ArialMT-32"/>
     <path d="M 40.4375 19 
L 49.078125 17.875 
Q 47.65625 8.9375 41.8125 3.875 
Q 35.984375 -1.171875 27.484375 -1.171875 
Q 16.84375 -1.171875 10.375 5.78125 
Q 3.90625 12.75 3.90625 25.734375 
Q 3.90625 34.125 6.6875 40.421875 
Q 9.46875 46.734375 15.15625 49.875 
Q 20.84375 53.03125 27.546875 53.03125 
Q 35.984375 53.03125 41.359375 48.75 
Q 46.734375 44.484375 48.25 36.625 
L 39.703125 35.296875 
Q 38.484375 40.53125 35.375 43.15625 
Q 32.28125 45.796875 27.875 45.796875 
Q 21.234375 45.796875 17.078125 41.03125 
Q 12.9375 36.28125 12.9375 25.984375 
Q 12.9375 15.53125 16.9375 10.796875 
Q 20.953125 6.0625 27.390625 6.0625 
Q 32.5625 6.0625 36.03125 9.234375 
Q 39.5 12.40625 40.4375 19 
z
" id="ArialMT-99"/>
    </defs>
    <g style="fill:#262626;" transform="translate(514.77075 14.0715)scale(0.096 -0.096)">
     <use xlink:href="#ArialMT-116"/>
     <use x="27.783203" xlink:href="#ArialMT-101"/>
     <use x="83.398438" xlink:href="#ArialMT-115"/>
     <use x="133.398438" xlink:href="#ArialMT-115"/>
     <use x="183.398438" xlink:href="#ArialMT-101"/>
     <use x="239.013672" xlink:href="#ArialMT-108"/>
     <use x="261.230469" xlink:href="#ArialMT-108"/>
     <use x="283.447266" xlink:href="#ArialMT-97"/>
     <use x="339.0625" xlink:href="#ArialMT-116"/>
     <use x="366.845703" xlink:href="#ArialMT-105"/>
     <use x="389.0625" xlink:href="#ArialMT-111"/>
     <use x="444.677734" xlink:href="#ArialMT-110"/>
     <use x="500.292969" xlink:href="#ArialMT-32"/>
     <use x="528.076172" xlink:href="#ArialMT-99"/>
     <use x="578.076172" xlink:href="#ArialMT-101"/>
     <use x="633.691406" xlink:href="#ArialMT-108"/>
     <use x="655.908203" xlink:href="#ArialMT-108"/>
     <use x="678.125" xlink:href="#ArialMT-115"/>
    </g>
   </g>
  </g>
  <g id="axes_3">
   <g id="patch_8">
    <path d="M 756.507485 291.8715 
L 1051.91925 291.8715 
L 1051.91925 20.0715 
L 756.507485 20.0715 
z
" style="fill:#ffffff;"/>
   </g>
   <g id="matplotlib.axis_5">
    <g id="xtick_11">
     <g id="line2d_32">
      <g>
       <use style="fill:#262626;stroke:#262626;" x="769.929441" xlink:href="#mbaadda8d71" y="301.8715"/>
      </g>
     </g>
     <g id="text_30">
      <!-- 0 -->
      <g style="fill:#262626;" transform="translate(767.482629 316.470375)scale(0.088 -0.088)">
       <use xlink:href="#ArialMT-48"/>
      </g>
     </g>
    </g>
    <g id="xtick_12">
     <g id="line2d_33">
      <g>
       <use style="fill:#262626;stroke:#262626;" x="829.609966" xlink:href="#mbaadda8d71" y="301.8715"/>
      </g>
     </g>
     <g id="text_31">
      <!-- 10 -->
      <g style="fill:#262626;" transform="translate(824.716341 316.470375)scale(0.088 -0.088)">
       <use xlink:href="#ArialMT-49"/>
       <use x="55.615234" xlink:href="#ArialMT-48"/>
      </g>
     </g>
    </g>
    <g id="xtick_13">
     <g id="line2d_34">
      <g>
       <use style="fill:#262626;stroke:#262626;" x="889.290492" xlink:href="#mbaadda8d71" y="301.8715"/>
      </g>
     </g>
     <g id="text_32">
      <!-- 20 -->
      <g style="fill:#262626;" transform="translate(884.396867 316.470375)scale(0.088 -0.088)">
       <use xlink:href="#ArialMT-50"/>
       <use x="55.615234" xlink:href="#ArialMT-48"/>
      </g>
     </g>
    </g>
    <g id="xtick_14">
     <g id="line2d_35">
      <g>
       <use style="fill:#262626;stroke:#262626;" x="948.971017" xlink:href="#mbaadda8d71" y="301.8715"/>
      </g>
     </g>
     <g id="text_33">
      <!-- 30 -->
      <g style="fill:#262626;" transform="translate(944.077392 316.470375)scale(0.088 -0.088)">
       <use xlink:href="#ArialMT-51"/>
       <use x="55.615234" xlink:href="#ArialMT-48"/>
      </g>
     </g>
    </g>
    <g id="xtick_15">
     <g id="line2d_36">
      <g>
       <use style="fill:#262626;stroke:#262626;" x="1008.651542" xlink:href="#mbaadda8d71" y="301.8715"/>
      </g>
     </g>
     <g id="text_34">
      <!-- 40 -->
      <g style="fill:#262626;" transform="translate(1003.757917 316.470375)scale(0.088 -0.088)">
       <use xlink:href="#ArialMT-52"/>
       <use x="55.615234" xlink:href="#ArialMT-48"/>
      </g>
     </g>
    </g>
   </g>
   <g id="matplotlib.axis_6">
    <g id="ytick_18">
     <g id="line2d_37">
      <g>
       <use style="fill:#262626;stroke:#262626;" x="746.507485" xlink:href="#m2812ab221a" y="291.8715"/>
      </g>
     </g>
     <g id="text_35">
      <!-- 0.000 -->
      <g style="fill:#262626;" transform="translate(716.188235 295.020938)scale(0.088 -0.088)">
       <use xlink:href="#ArialMT-48"/>
       <use x="55.615234" xlink:href="#ArialMT-46"/>
       <use x="83.398438" xlink:href="#ArialMT-48"/>
       <use x="139.013672" xlink:href="#ArialMT-48"/>
       <use x="194.628906" xlink:href="#ArialMT-48"/>
      </g>
     </g>
    </g>
    <g id="ytick_19">
     <g id="line2d_38">
      <g>
       <use style="fill:#262626;stroke:#262626;" x="746.507485" xlink:href="#m2812ab221a" y="257.8965"/>
      </g>
     </g>
     <g id="text_36">
      <!-- 0.005 -->
      <g style="fill:#262626;" transform="translate(716.188235 261.045938)scale(0.088 -0.088)">
       <use xlink:href="#ArialMT-48"/>
       <use x="55.615234" xlink:href="#ArialMT-46"/>
       <use x="83.398438" xlink:href="#ArialMT-48"/>
       <use x="139.013672" xlink:href="#ArialMT-48"/>
       <use x="194.628906" xlink:href="#ArialMT-53"/>
      </g>
     </g>
    </g>
    <g id="ytick_20">
     <g id="line2d_39">
      <g>
       <use style="fill:#262626;stroke:#262626;" x="746.507485" xlink:href="#m2812ab221a" y="223.9215"/>
      </g>
     </g>
     <g id="text_37">
      <!-- 0.010 -->
      <g style="fill:#262626;" transform="translate(716.188235 227.070938)scale(0.088 -0.088)">
       <use xlink:href="#ArialMT-48"/>
       <use x="55.615234" xlink:href="#ArialMT-46"/>
       <use x="83.398438" xlink:href="#ArialMT-48"/>
       <use x="139.013672" xlink:href="#ArialMT-49"/>
       <use x="194.628906" xlink:href="#ArialMT-48"/>
      </g>
     </g>
    </g>
    <g id="ytick_21">
     <g id="line2d_40">
      <g>
       <use style="fill:#262626;stroke:#262626;" x="746.507485" xlink:href="#m2812ab221a" y="189.9465"/>
      </g>
     </g>
     <g id="text_38">
      <!-- 0.015 -->
      <g style="fill:#262626;" transform="translate(716.188235 193.095938)scale(0.088 -0.088)">
       <use xlink:href="#ArialMT-48"/>
       <use x="55.615234" xlink:href="#ArialMT-46"/>
       <use x="83.398438" xlink:href="#ArialMT-48"/>
       <use x="139.013672" xlink:href="#ArialMT-49"/>
       <use x="194.628906" xlink:href="#ArialMT-53"/>
      </g>
     </g>
    </g>
    <g id="ytick_22">
     <g id="line2d_41">
      <g>
       <use style="fill:#262626;stroke:#262626;" x="746.507485" xlink:href="#m2812ab221a" y="155.9715"/>
      </g>
     </g>
     <g id="text_39">
      <!-- 0.020 -->
      <g style="fill:#262626;" transform="translate(716.188235 159.120938)scale(0.088 -0.088)">
       <use xlink:href="#ArialMT-48"/>
       <use x="55.615234" xlink:href="#ArialMT-46"/>
       <use x="83.398438" xlink:href="#ArialMT-48"/>
       <use x="139.013672" xlink:href="#ArialMT-50"/>
       <use x="194.628906" xlink:href="#ArialMT-48"/>
      </g>
     </g>
    </g>
    <g id="ytick_23">
     <g id="line2d_42">
      <g>
       <use style="fill:#262626;stroke:#262626;" x="746.507485" xlink:href="#m2812ab221a" y="121.9965"/>
      </g>
     </g>
     <g id="text_40">
      <!-- 0.025 -->
      <g style="fill:#262626;" transform="translate(716.188235 125.145938)scale(0.088 -0.088)">
       <use xlink:href="#ArialMT-48"/>
       <use x="55.615234" xlink:href="#ArialMT-46"/>
       <use x="83.398438" xlink:href="#ArialMT-48"/>
       <use x="139.013672" xlink:href="#ArialMT-50"/>
       <use x="194.628906" xlink:href="#ArialMT-53"/>
      </g>
     </g>
    </g>
    <g id="ytick_24">
     <g id="line2d_43">
      <g>
       <use style="fill:#262626;stroke:#262626;" x="746.507485" xlink:href="#m2812ab221a" y="88.0215"/>
      </g>
     </g>
     <g id="text_41">
      <!-- 0.030 -->
      <g style="fill:#262626;" transform="translate(716.188235 91.170938)scale(0.088 -0.088)">
       <use xlink:href="#ArialMT-48"/>
       <use x="55.615234" xlink:href="#ArialMT-46"/>
       <use x="83.398438" xlink:href="#ArialMT-48"/>
       <use x="139.013672" xlink:href="#ArialMT-51"/>
       <use x="194.628906" xlink:href="#ArialMT-48"/>
      </g>
     </g>
    </g>
    <g id="ytick_25">
     <g id="line2d_44">
      <g>
       <use style="fill:#262626;stroke:#262626;" x="746.507485" xlink:href="#m2812ab221a" y="54.0465"/>
      </g>
     </g>
     <g id="text_42">
      <!-- 0.035 -->
      <g style="fill:#262626;" transform="translate(716.188235 57.195937)scale(0.088 -0.088)">
       <use xlink:href="#ArialMT-48"/>
       <use x="55.615234" xlink:href="#ArialMT-46"/>
       <use x="83.398438" xlink:href="#ArialMT-48"/>
       <use x="139.013672" xlink:href="#ArialMT-51"/>
       <use x="194.628906" xlink:href="#ArialMT-53"/>
      </g>
     </g>
    </g>
    <g id="ytick_26">
     <g id="line2d_45">
      <g>
       <use style="fill:#262626;stroke:#262626;" x="746.507485" xlink:href="#m2812ab221a" y="20.0715"/>
      </g>
     </g>
     <g id="text_43">
      <!-- 0.040 -->
      <g style="fill:#262626;" transform="translate(716.188235 23.220938)scale(0.088 -0.088)">
       <use xlink:href="#ArialMT-48"/>
       <use x="55.615234" xlink:href="#ArialMT-46"/>
       <use x="83.398438" xlink:href="#ArialMT-48"/>
       <use x="139.013672" xlink:href="#ArialMT-52"/>
       <use x="194.628906" xlink:href="#ArialMT-48"/>
      </g>
     </g>
    </g>
   </g>
   <g id="PolyCollection_3">
    <path clip-path="url(#p54f357868c)" d="M 769.935293 187.677606 
L 769.935293 291.8715 
L 772.049908 291.8715 
L 774.164523 291.8715 
L 776.279139 291.8715 
L 778.393754 291.8715 
L 780.50837 291.8715 
L 782.622985 291.8715 
L 784.7376 291.8715 
L 786.852216 291.8715 
L 788.966831 291.8715 
L 791.081446 291.8715 
L 793.196062 291.8715 
L 795.310677 291.8715 
L 797.425292 291.8715 
L 799.539908 291.8715 
L 801.654523 291.8715 
L 803.769138 291.8715 
L 805.883754 291.8715 
L 807.998369 291.8715 
L 810.112984 291.8715 
L 812.2276 291.8715 
L 814.342215 291.8715 
L 816.456831 291.8715 
L 818.571446 291.8715 
L 820.686061 291.8715 
L 822.800677 291.8715 
L 824.915292 291.8715 
L 827.029907 291.8715 
L 829.144523 291.8715 
L 831.259138 291.8715 
L 833.373753 291.8715 
L 835.488369 291.8715 
L 837.602984 291.8715 
L 839.717599 291.8715 
L 841.832215 291.8715 
L 843.94683 291.8715 
L 846.061445 291.8715 
L 848.176061 291.8715 
L 850.290676 291.8715 
L 852.405292 291.8715 
L 854.519907 291.8715 
L 856.634522 291.8715 
L 858.749138 291.8715 
L 860.863753 291.8715 
L 862.978368 291.8715 
L 865.092984 291.8715 
L 867.207599 291.8715 
L 869.322214 291.8715 
L 871.43683 291.8715 
L 873.551445 291.8715 
L 875.66606 291.8715 
L 877.780676 291.8715 
L 879.895291 291.8715 
L 882.009906 291.8715 
L 884.124522 291.8715 
L 886.239137 291.8715 
L 888.353753 291.8715 
L 890.468368 291.8715 
L 892.582983 291.8715 
L 894.697599 291.8715 
L 896.812214 291.8715 
L 898.926829 291.8715 
L 901.041445 291.8715 
L 903.15606 291.8715 
L 905.270675 291.8715 
L 907.385291 291.8715 
L 909.499906 291.8715 
L 911.614521 291.8715 
L 913.729137 291.8715 
L 915.843752 291.8715 
L 917.958367 291.8715 
L 920.072983 291.8715 
L 922.187598 291.8715 
L 924.302213 291.8715 
L 926.416829 291.8715 
L 928.531444 291.8715 
L 930.64606 291.8715 
L 932.760675 291.8715 
L 934.87529 291.8715 
L 936.989906 291.8715 
L 939.104521 291.8715 
L 941.219136 291.8715 
L 943.333752 291.8715 
L 945.448367 291.8715 
L 947.562982 291.8715 
L 949.677598 291.8715 
L 951.792213 291.8715 
L 953.906828 291.8715 
L 956.021444 291.8715 
L 958.136059 291.8715 
L 960.250674 291.8715 
L 962.36529 291.8715 
L 964.479905 291.8715 
L 966.594521 291.8715 
L 968.709136 291.8715 
L 970.823751 291.8715 
L 972.938367 291.8715 
L 975.052982 291.8715 
L 977.167597 291.8715 
L 979.282213 291.8715 
L 981.396828 291.8715 
L 983.511443 291.8715 
L 985.626059 291.8715 
L 987.740674 291.8715 
L 989.855289 291.8715 
L 991.969905 291.8715 
L 994.08452 291.8715 
L 996.199135 291.8715 
L 998.313751 291.8715 
L 1000.428366 291.8715 
L 1002.542982 291.8715 
L 1004.657597 291.8715 
L 1006.772212 291.8715 
L 1008.886828 291.8715 
L 1011.001443 291.8715 
L 1013.116058 291.8715 
L 1015.230674 291.8715 
L 1017.345289 291.8715 
L 1019.459904 291.8715 
L 1021.57452 291.8715 
L 1023.689135 291.8715 
L 1025.80375 291.8715 
L 1027.918366 291.8715 
L 1030.032981 291.8715 
L 1032.147596 291.8715 
L 1034.262212 291.8715 
L 1036.376827 291.8715 
L 1038.491443 291.8715 
L 1038.491443 200.186105 
L 1038.491443 200.186105 
L 1036.376827 207.930201 
L 1034.262212 211.705555 
L 1032.147596 212.69765 
L 1030.032981 212.072404 
L 1027.918366 210.701768 
L 1025.80375 209.078632 
L 1023.689135 207.383916 
L 1021.57452 205.624459 
L 1019.459904 203.766657 
L 1017.345289 201.822774 
L 1015.230674 199.878521 
L 1013.116058 198.071303 
L 1011.001443 196.539841 
L 1008.886828 195.370365 
L 1006.772212 194.561728 
L 1004.657597 194.021761 
L 1002.542982 193.594534 
L 1000.428366 193.108631 
L 998.313751 192.432179 
L 996.199135 191.518625 
L 994.08452 190.426522 
L 991.969905 189.300186 
L 989.855289 188.310743 
L 987.740674 187.57718 
L 985.626059 187.103371 
L 983.511443 186.766035 
L 981.396828 186.366322 
L 979.282213 185.72496 
L 977.167597 184.776823 
L 975.052982 183.619867 
L 972.938367 182.495651 
L 970.823751 181.711047 
L 968.709136 181.535682 
L 966.594521 182.115968 
L 964.479905 183.434205 
L 962.36529 185.319405 
L 960.250674 187.496737 
L 958.136059 189.652761 
L 956.021444 191.495442 
L 953.906828 192.797475 
L 951.792213 193.422012 
L 949.677598 193.335118 
L 947.562982 192.60698 
L 945.448367 191.398133 
L 943.333752 189.925369 
L 941.219136 188.409298 
L 939.104521 187.017841 
L 936.989906 185.827194 
L 934.87529 184.816207 
L 932.760675 183.893582 
L 930.64606 182.94066 
L 928.531444 181.847185 
L 926.416829 180.527048 
L 924.302213 178.919154 
L 922.187598 176.991956 
L 920.072983 174.767407 
L 917.958367 172.359537 
L 915.843752 169.997501 
L 913.729137 167.994403 
L 911.614521 166.645914 
L 909.499906 166.089243 
L 907.385291 166.19379 
L 905.270675 166.556972 
L 903.15606 166.631958 
L 901.041445 165.942181 
L 898.926829 164.284216 
L 896.812214 161.819772 
L 894.697599 159.01034 
L 892.582983 156.424009 
L 890.468368 154.50199 
L 888.353753 153.385647 
L 886.239137 152.871734 
L 884.124522 152.504395 
L 882.009906 151.756018 
L 879.895291 150.218991 
L 877.780676 147.735677 
L 875.66606 144.426659 
L 873.551445 140.619544 
L 871.43683 136.714874 
L 869.322214 133.042683 
L 867.207599 129.761761 
L 865.092984 126.836126 
L 862.978368 124.093637 
L 860.863753 121.338 
L 858.749138 118.460731 
L 856.634522 115.498189 
L 854.519907 112.605179 
L 852.405292 109.959446 
L 850.290676 107.647276 
L 848.176061 105.588729 
L 846.061445 103.538505 
L 843.94683 101.160398 
L 841.832215 98.141869 
L 839.717599 94.303538 
L 837.602984 89.665145 
L 835.488369 84.446043 
L 833.373753 78.997991 
L 831.259138 73.689642 
L 829.144523 68.783381 
L 827.029907 64.357064 
L 824.915292 60.313241 
L 822.800677 56.481787 
L 820.686061 52.771912 
L 818.571446 49.294624 
L 816.456831 46.382746 
L 814.342215 44.485509 
L 812.2276 43.981902 
L 810.112984 45.000817 
L 807.998369 47.330055 
L 805.883754 50.447169 
L 803.769138 53.647416 
L 801.654523 56.213217 
L 799.539908 57.575951 
L 797.425292 57.446594 
L 795.310677 55.910219 
L 793.196062 53.478889 
L 791.081446 51.086482 
L 788.966831 50.003162 
L 786.852216 51.655015 
L 784.7376 57.355097 
L 782.622985 67.982289 
L 780.50837 83.679609 
L 778.393754 103.671712 
L 776.279139 126.299521 
L 774.164523 149.316914 
L 772.049908 170.395083 
L 769.935293 187.677606 
z
" style="fill:#273e72;fill-opacity:0.25;"/>
   </g>
   <g id="line2d_46">
    <path clip-path="url(#p54f357868c)" d="M 769.935293 187.677606 
L 772.049908 170.395083 
L 774.164523 149.316914 
L 778.393754 103.671712 
L 780.50837 83.679609 
L 782.622985 67.982289 
L 784.7376 57.355097 
L 786.852216 51.655015 
L 788.966831 50.003162 
L 791.081446 51.086482 
L 795.310677 55.910219 
L 797.425292 57.446594 
L 799.539908 57.575951 
L 801.654523 56.213217 
L 803.769138 53.647416 
L 807.998369 47.330055 
L 810.112984 45.000817 
L 812.2276 43.981902 
L 814.342215 44.485509 
L 816.456831 46.382746 
L 818.571446 49.294624 
L 820.686061 52.771912 
L 824.915292 60.313241 
L 827.029907 64.357064 
L 829.144523 68.783381 
L 831.259138 73.689642 
L 837.602984 89.665145 
L 839.717599 94.303538 
L 841.832215 98.141869 
L 843.94683 101.160398 
L 846.061445 103.538505 
L 850.290676 107.647276 
L 852.405292 109.959446 
L 854.519907 112.605179 
L 862.978368 124.093637 
L 865.092984 126.836126 
L 867.207599 129.761761 
L 869.322214 133.042683 
L 871.43683 136.714874 
L 875.66606 144.426659 
L 877.780676 147.735677 
L 879.895291 150.218991 
L 882.009906 151.756018 
L 884.124522 152.504395 
L 886.239137 152.871734 
L 888.353753 153.385647 
L 890.468368 154.50199 
L 892.582983 156.424009 
L 894.697599 159.01034 
L 896.812214 161.819772 
L 898.926829 164.284216 
L 901.041445 165.942181 
L 903.15606 166.631958 
L 905.270675 166.556972 
L 907.385291 166.19379 
L 909.499906 166.089243 
L 911.614521 166.645914 
L 913.729137 167.994403 
L 915.843752 169.997501 
L 922.187598 176.991956 
L 924.302213 178.919154 
L 926.416829 180.527048 
L 928.531444 181.847185 
L 930.64606 182.94066 
L 936.989906 185.827194 
L 939.104521 187.017841 
L 943.333752 189.925369 
L 945.448367 191.398133 
L 947.562982 192.60698 
L 949.677598 193.335118 
L 951.792213 193.422012 
L 953.906828 192.797475 
L 956.021444 191.495442 
L 958.136059 189.652761 
L 962.36529 185.319405 
L 964.479905 183.434205 
L 966.594521 182.115968 
L 968.709136 181.535682 
L 970.823751 181.711047 
L 972.938367 182.495651 
L 977.167597 184.776823 
L 979.282213 185.72496 
L 981.396828 186.366322 
L 987.740674 187.57718 
L 989.855289 188.310743 
L 991.969905 189.300186 
L 996.199135 191.518625 
L 998.313751 192.432179 
L 1000.428366 193.108631 
L 1006.772212 194.561728 
L 1008.886828 195.370365 
L 1011.001443 196.539841 
L 1013.116058 198.071303 
L 1017.345289 201.822774 
L 1021.57452 205.624459 
L 1025.80375 209.078632 
L 1027.918366 210.701768 
L 1030.032981 212.072404 
L 1032.147596 212.69765 
L 1034.262212 211.705555 
L 1036.376827 207.930201 
L 1038.491443 200.186105 
L 1038.491443 200.186105 
" style="fill:none;stroke:#273e72;stroke-linecap:round;stroke-width:1.2;"/>
   </g>
   <g id="line2d_47">
    <path clip-path="url(#p54f357868c)" d="M 859.42483 291.8715 
L 859.42483 20.0715 
" style="fill:none;stroke:#273e72;stroke-linecap:round;stroke-width:1.2;"/>
   </g>
   <g id="patch_9">
    <path d="M 746.507485 291.8715 
L 746.507485 20.0715 
" style="fill:none;stroke:#262626;stroke-linecap:square;stroke-linejoin:miter;"/>
   </g>
   <g id="patch_10">
    <path d="M 756.507485 301.8715 
L 1051.91925 301.8715 
" style="fill:none;stroke:#262626;stroke-linecap:square;stroke-linejoin:miter;"/>
   </g>
   <g id="text_44">
    <!-- blocks -->
    <defs>
     <path d="M 6.640625 0 
L 6.640625 71.578125 
L 15.4375 71.578125 
L 15.4375 30.765625 
L 36.234375 51.859375 
L 47.609375 51.859375 
L 27.78125 32.625 
L 49.609375 0 
L 38.765625 0 
L 21.625 26.515625 
L 15.4375 20.5625 
L 15.4375 0 
z
" id="ArialMT-107"/>
    </defs>
    <g style="fill:#262626;" transform="translate(890.608368 14.0715)scale(0.096 -0.096)">
     <use xlink:href="#ArialMT-98"/>
     <use x="55.615234" xlink:href="#ArialMT-108"/>
     <use x="77.832031" xlink:href="#ArialMT-111"/>
     <use x="133.447266" xlink:href="#ArialMT-99"/>
     <use x="183.447266" xlink:href="#ArialMT-107"/>
     <use x="233.447266" xlink:href="#ArialMT-115"/>
    </g>
   </g>
  </g>
 </g>
 <defs>
  <clipPath id="p38fd939c6b">
   <rect height="271.8" width="295.411765" x="47.51925" y="20.0715"/>
  </clipPath>
  <clipPath id="pe7e3b17958">
   <rect height="271.8" width="295.411765" x="402.013368" y="20.0715"/>
  </clipPath>
  <clipPath id="p54f357868c">
   <rect height="271.8" width="295.411765" x="756.507485" y="20.0715"/>
  </clipPath>
 </defs>
</svg>
